<?xml version="1.0" encoding="UTF-8"?>
<svg width="40px" height="40px" viewBox="0 0 40 40" version="1.1" xmlns="http://www.w3.org/2000/svg" xmlns:xlink="http://www.w3.org/1999/xlink">
    <title>icon / opening time</title>
    <g id="Styleguide" stroke="none" stroke-width="1" fill="none" fill-rule="evenodd">
        <g id="Icons" transform="translate(-156.000000, -460.000000)" fill="#000000">
            <g id="Combined-Shape" transform="translate(156.000000, 460.000000)">
                <path d="M20,0 C31.0281044,0 40,8.97261256 40,20 C40,31.0281044 31.0281044,40 20,40 C8.97189561,40 -1.91846539e-13,31.0281044 -1.91846539e-13,20 C-1.91846539e-13,8.97261256 8.97189561,0 20,0 Z M20,2.150846 C10.1577287,2.150846 2.150846,10.1584457 2.150846,20 C2.150846,29.8422713 10.1577287,37.849154 20,37.849154 C29.8422713,37.849154 37.849154,29.8422713 37.849154,20 C37.849154,10.1584457 29.8422713,2.150846 20,2.150846 Z M20,6.64855176 C20.5943504,6.64855176 21.075423,7.13034127 21.075423,7.72397476 L21.075423,7.72397476 L21.075423,20.4455119 L14.8831374,26.6370806 C14.6730714,26.8471465 14.3984801,26.951821 14.1231718,26.951821 C13.8478635,26.951821 13.5725552,26.8471465 13.3624892,26.6370806 C12.9423573,26.2169487 12.9423573,25.5365644 13.3624892,25.1164325 L13.3624892,25.1164325 L18.924577,19.5550617 L18.924577,7.72397476 C18.924577,7.13034127 19.4056496,6.64855176 20,6.64855176 Z"></path>
            </g>
        </g>
    </g>
</svg>